<svg width="200" height="200" viewBox="0 0 200 200" fill="none" xmlns="http://www.w3.org/2000/svg">
<path d="M97.5536 199.878C96.3014 199.651 95.4962 199.24 94.6154 198.377C93.8865 197.664 92.8444 195.781 92.6833 194.887C92.6277 194.578 92.4441 194.5 91.6611 194.452L90.7065 194.392L90.5171 195.131C90.2462 196.187 88.8816 198.151 87.928 198.857C87.4304 199.226 86.7988 199.5 86.3048 199.563L84.2132 199.747C84.2132 199.747 82.2728 199.455 85.8492 199.161C86.7575 198.985 87.4351 198.637 88.1854 197.97C88.6304 197.575 89.9041 195.671 89.9051 195.399C89.9055 195.275 90.0542 194.877 90.2355 194.515C90.5615 193.862 90.578 193.855 91.7844 193.855C92.986 193.855 93.0089 193.864 93.3507 194.508C94.2628 196.225 96.4997 197.635 98.5894 197.81C99.8293 197.914 102.528 197.469 102.797 197.116C102.849 197.047 103.186 196.828 103.545 196.628C104.298 196.21 105.14 195.353 105.54 194.598C105.814 194.083 105.841 194.076 107.35 194.135C108.813 194.192 108.887 194.216 108.984 194.665C109.17 195.518 109.998 197.009 110.666 197.692C110.829 197.859 111.375 198.285 111.878 198.638C112.702 199.217 112.942 199.288 114.313 199.352C115.523 199.409 116 199.349 116.651 199.058C117.497 198.679 119.052 197.532 118.76 197.503C118.669 197.494 118.16 197.498 117.628 197.512C116.493 197.542 115.036 197.084 114.42 196.504C112.651 194.837 113.23 191.745 115.598 190.226C116.323 189.76 116.788 189.55 118.251 189.027C118.626 188.893 122.533 188.831 129.989 188.839L178.624 188.851L178.736 189.329C178.921 190.112 179.944 192.346 180.119 192.347C180.208 192.347 180.28 192.468 180.28 192.616C180.278 192.955 181.904 194.524 183.012 195.254C183.713 195.716 184.094 195.821 185.346 195.899C186.895 195.994 188.806 195.61 189.446 195.073C189.609 194.936 189.819 194.821 189.914 194.817C190.337 194.799 191.484 192.958 191.784 191.815C192.053 190.792 192.067 190.449 191.879 189.584C191.433 187.538 190.311 186.54 188.399 186.487C187.287 186.457 187.201 186.487 186.565 187.139C185.777 187.947 185.601 188.939 186.066 189.942C186.336 190.525 186.448 190.591 187.251 190.646C188.44 190.727 188.46 191.179 187.283 191.352C184.601 191.746 182.71 188.473 183.795 185.312C184.068 184.515 185.612 182.598 185.979 182.599C186.042 182.599 186.455 182.363 186.899 182.073C188.09 181.294 188.953 181.09 191.492 180.983L193.783 180.886L193.809 179.55C193.823 178.815 193.827 112.994 193.818 111.496C193.744 99.4741 193.657 87.9608 193.628 86.3203C193.61 85.2353 193.582 20.8549 193.568 19.7845L193.542 17.8384L193.027 17.9769C192.744 18.0531 191.461 18.1632 190.175 18.2216C187.498 18.3432 186.078 18.0772 184.178 17.0984C182.611 16.291 180.451 14.0892 179.818 12.6539C178.46 9.575 180.37 5.80694 183.284 5.81767C184.317 5.82122 184.944 6.10292 185.68 6.89304C186.352 7.61455 186.288 8.11034 185.572 7.72219C184.846 7.32816 183.971 7.46987 183.342 8.08346C182.372 9.02956 182.474 10.3855 183.597 11.4878C184.195 12.075 184.295 12.1051 185.669 12.115C186.913 12.1239 187.197 12.0624 187.723 11.6692C188.965 10.7398 189.538 8.49449 189.035 6.52768C188.742 5.38627 187.431 3.39061 186.972 3.38892C186.832 3.38841 186.677 3.28216 186.629 3.15282C186.347 2.40797 182.149 1.84148 180.792 2.36527C180.483 2.48452 180.014 2.62839 179.748 2.68499C179.483 2.74158 179.036 3.00042 178.755 3.2602C178.474 3.51999 178.21 3.7324 178.169 3.73225C178.053 3.73183 177.138 4.67066 177.138 4.79001C177.138 4.8478 176.884 5.26999 176.574 5.72815C176.263 6.18633 176.009 6.62561 176.009 6.70435C176.009 6.78309 175.839 7.19686 175.632 7.62383C175.425 8.0508 175.254 8.60146 175.254 8.84754C175.251 9.6255 174.816 11.5106 174.604 11.6603C174.493 11.7394 173.14 11.792 171.597 11.7773C170.055 11.7625 126.597 11.7388 120.807 11.7246L110.278 11.6987L110.336 12.1216C110.393 12.5387 110.437 12.5454 113.546 12.6078C116.543 12.6679 116.714 12.6915 117.043 13.0903C117.517 13.6656 117.485 13.9882 116.901 14.4882C116.435 14.8882 116.24 14.9145 113.815 14.9055C111.639 14.8975 111.227 14.9409 111.226 15.1778C111.225 15.3328 111.289 15.4598 111.367 15.4601C111.446 15.4604 111.592 15.6416 111.693 15.8628L111.876 16.265L123.841 16.2523C130.422 16.2452 173.926 16.2333 174.735 16.2256L176.207 16.2116L176.882 17.0558C177.254 17.5201 177.846 18.1579 178.198 18.4731C178.55 18.7884 179.015 19.216 179.23 19.4235C179.808 19.9784 180.775 20.6503 180.998 20.6511C181.105 20.6515 181.193 20.7281 181.192 20.8213C181.192 20.9146 181.423 21.0785 181.705 21.1857C181.987 21.2929 182.77 21.5899 183.445 21.8457C184.12 22.1016 185.128 22.3694 185.686 22.4408C186.244 22.5123 186.92 22.6135 187.189 22.6657L187.677 22.7607L187.763 94.3396C187.811 99.2686 187.862 105.287 187.877 107.714L187.905 176.121L186.884 176.265C186.323 176.344 185.781 176.491 185.68 176.591C185.58 176.691 185.354 176.773 185.179 176.773C184.839 176.771 182.725 177.904 182.318 178.306C182.184 178.438 181.737 178.849 181.324 179.22C180.328 180.114 179.145 181.782 178.826 182.744C178.653 183.263 178.439 183.546 178.178 183.598C177.964 183.641 135.619 183.699 129.861 183.727C117.295 183.788 117.252 183.792 113.918 185.452C112.677 186.069 111.95 186.626 110.895 187.768L110.246 188.47L108.133 188.462L106.019 188.455L105.561 187.439C105.306 186.873 104.653 185.971 104.084 185.399C102.786 184.096 101.479 183.553 99.6227 183.546C98.3694 183.542 96.5114 183.962 95.9534 184.376C95.3444 184.828 94.2393 185.971 94.2386 186.15C94.2382 186.257 94.1642 186.344 94.0741 186.344C93.9839 186.344 93.7089 186.8 93.4628 187.357C92.9519 188.515 92.7655 188.588 90.3364 188.583C89.0746 188.58 88.9351 188.54 88.5622 188.074C87.0509 186.183 85.3724 185.003 83.0289 184.182C81.4562 183.632 78.767 183.522 68.7294 183.601C21.1726 183.643 21.9771 183.623 21.7695 183.557C21.5619 183.49 21.3028 183.235 21.1936 182.991C20.3586 181.121 19.6181 179.876 18.897 179.127C17.8665 178.058 16.2329 176.956 15.244 176.664C13.7389 176.219 12.9601 176.035 12.572 176.034L12.173 176.032L12.1529 104.759C12.125 94.691 12.1564 25.1021 12.236 23.8424L12.3029 22.7798L13.6424 22.663C14.3791 22.5987 15.1504 22.4796 15.3563 22.3982C16.1215 22.0958 17.0537 21.7822 17.4621 21.6898C17.6936 21.6374 17.8833 21.5281 17.8836 21.4469C17.8839 21.3658 18.1158 21.2086 18.399 21.0977C18.9466 20.8832 19.602 20.501 19.7573 20.3055C19.8089 20.2405 20.2268 19.8752 20.6858 19.4937C21.4606 18.85 22.8403 17.1877 23.0028 16.7022C23.0854 16.4554 69.3399 16.2673 80.3752 16.2958C84.231 16.3058 87.4718 16.2502 87.577 16.1723C87.8496 15.9703 88.2279 15.0579 88.0949 14.9233C88.0335 14.8611 86.7984 14.8046 85.3504 14.7977C82.4966 14.7844 81.827 14.6137 81.7244 13.8746C81.6913 13.636 81.8108 13.2793 81.99 13.0818C82.2885 12.7528 82.6023 12.7238 85.7452 12.7354L89.1748 12.748L89.1769 12.1593L89.179 11.5705L76.0455 11.6445C68.8221 11.6852 25.9522 11.6509 25.6025 11.568C24.8959 11.4007 24.9359 11.5245 24.7678 8.98279C24.6197 6.74256 24.186 5.83699 22.3914 4.02087C21.1255 2.73981 20.0862 2.40161 17.3922 2.39407C15.2078 2.38839 15.027 2.42858 13.1262 3.35205C11.6243 4.08172 10.3452 6.2081 10.5169 7.68988C10.7058 9.32108 10.9831 9.94625 11.93 10.8766C13.7621 12.6765 16.7114 11.8299 16.9492 9.4358C17.0309 8.6126 16.9757 8.39831 16.529 7.80532C16.0381 7.1536 15.9732 7.12645 15.0999 7.20753C14.5967 7.25425 14.1487 7.23295 14.1042 7.16009C14.0599 7.08729 14.2794 6.78323 14.5922 6.48442C15.1141 5.98572 15.2669 5.94333 16.4532 5.96805C17.61 5.99212 17.829 6.05995 18.5415 6.61452C20.3456 8.01868 20.7765 10.9577 19.5748 13.6611C19.1975 14.5097 16.8961 16.9379 16.4706 16.9363C16.3314 16.9358 16.2172 17.0184 16.2168 17.1197C16.2164 17.2211 15.9846 17.3587 15.7016 17.4255C15.4186 17.4923 15.0789 17.6321 14.9467 17.7361C14.6168 17.9956 11.6136 18.6035 10.6964 18.5965C10.2851 18.5936 9.15003 18.4267 8.17395 18.2262C7.17768 18.0216 6.32732 17.9326 6.23524 18.0232C6.14494 18.1121 6.10862 82.8982 6.1544 85.4659C6.20018 88.0313 6.22209 96.1417 6.20309 103.489L6.16853 180.841L7.1533 180.578C8.98765 180.088 11.9545 180.63 13.5873 181.754C15.6957 183.205 17.0668 185.289 17.065 187.041C17.0643 187.991 16.5077 189.763 16.2105 189.762C16.1216 189.761 16.0486 189.846 16.0483 189.949C16.0476 190.204 15.4881 190.723 14.7878 191.119C14.4175 191.328 13.812 191.444 13.1062 191.441C12.1041 191.438 11.9489 191.38 11.4081 190.815C10.8085 190.189 10.6443 189.741 11.0147 189.743C11.1249 189.743 11.3408 189.871 11.4944 190.026C11.6654 190.199 12.1134 190.308 12.6485 190.306C13.3556 190.304 13.5868 190.216 13.8552 189.848C14.4164 189.079 14.4483 188.421 13.9602 187.687C12.8977 186.089 10.6726 185.943 9.21944 187.374C8.46923 188.114 8.20014 188.924 8.19453 190.462C8.19029 191.657 8.6048 192.873 9.36109 193.884C9.84864 194.536 11.2299 195.355 12.3736 195.67C13.4029 195.954 13.746 195.972 14.6973 195.787C15.8309 195.567 17.8238 194.646 18.2034 194.166C18.3181 194.022 18.4705 193.903 18.5421 193.903C18.7626 193.904 19.774 192.716 20.0166 192.171C20.1429 191.887 20.3062 191.656 20.3796 191.656C20.453 191.656 20.6867 191.086 20.8991 190.39C21.1114 189.693 21.3487 189.029 21.4265 188.915C21.6037 188.655 77.6878 188.5 79.9755 188.74C81.7122 188.923 82.7581 189.37 83.8956 190.414C84.9714 191.402 85.6068 192.748 85.6074 194.039C85.6088 196.413 82.9791 198.217 80.8685 197.291C80.5508 197.151 80.5437 197.204 81.0034 197.713C81.293 198.034 81.7855 198.433 82.6066 198.857C83.7518 199.33 85.0415 199.674 84.2132 199.747C83.1989 199.743 80.7783 198.573 80.1656 197.355C79.865 196.758 79.6801 195.872 79.8561 195.873C79.8825 195.873 80.171 195.951 80.4972 196.046C81.1312 196.232 82.5426 195.977 82.911 195.611C83.5842 194.942 83.8443 192.792 83.2787 192.572C83.1247 192.512 82.9992 192.334 82.9998 192.176C83.0005 191.947 82.8275 191.909 82.1186 191.987C81.6333 192.04 81.2052 192.176 81.1671 192.29C81.129 192.403 80.9912 192.495 80.8608 192.495C80.4509 192.494 79.4861 193.558 79.09 194.449L78.7095 195.305L73.4176 195.333C62.7919 195.388 25.8468 195.402 25.062 194.869C24.4196 194.433 24.3732 194.34 24.4492 193.646C24.4945 193.233 24.5795 192.726 24.6382 192.519C24.6969 192.313 24.804 191.869 24.8762 191.534L25.0075 190.924L24.4341 190.923L23.2423 190.922L22.637 192.205C21.824 193.928 20.6819 195.242 18.9126 196.489C16.735 198.024 12.3668 198.421 10.1952 197.281C8.79897 196.549 8.03205 195.877 7.31267 194.757C6.272 193.137 5.94543 192.034 5.95225 190.164C5.96334 187.128 7.36416 185.154 10.1668 184.225C11.3178 183.843 11.7521 183.844 13.1034 184.23C14.9299 184.753 16.0555 186.224 16.0623 188.099L16.0659 189.104L16.3413 188.473C16.941 187.098 16.5334 185.173 15.3996 184.025C14.6112 183.227 12.7573 182.351 11.19 182.037C10.1035 181.818 9.78582 181.827 8.63213 182.104C7.45987 182.386 7.2775 182.39 6.97578 182.138C6.7893 181.983 6.43868 181.699 6.19661 181.506C5.79893 181.19 5.75331 180.995 5.72352 179.475C5.70084 178.318 5.62175 113.805 5.46992 113.818C5.34858 113.828 5.13969 113.848 5.00572 113.863C4.54723 113.915 2.6053 115.997 2.4912 116.559C2.43001 116.861 2.26775 117.151 2.13059 117.203C1.85404 117.308 1.67992 117.152 0.794497 116.004L0.188309 115.218L0.0941542 109.024L0 102.831L0.586598 102.703C0.90922 102.633 1.22147 102.498 1.28047 102.403C1.33947 102.308 1.55105 102.231 1.75063 102.231C1.9502 102.232 2.44228 101.905 2.84416 101.504C4.73667 99.6159 3.58734 96.8793 0.593347 96.1444L0.079697 96.0184L0.101529 90.0264L0.123361 84.0343L1.1009 82.7272C1.6773 81.9565 2.17776 81.4588 2.32048 81.5145C2.45362 81.5664 2.56227 81.6832 2.56194 81.7741C2.56052 82.1138 3.61077 83.4163 4.34818 83.9898C5.6445 84.9981 5.70946 84.9207 5.77919 82.285L5.84011 17.3669L6.68115 17.4283C7.14372 17.4621 7.81629 17.5876 8.17573 17.7072C9.07 18.0048 12.3413 17.948 13.5976 17.613C14.8902 17.2683 15.9178 16.8349 16.4344 16.4165C18.5035 14.7407 19.2686 13.7058 19.5714 12.1728C19.9723 10.1433 19.7557 8.69808 18.8929 7.64577C18.6378 7.33466 18.4862 7.23589 18.5556 7.42612C18.9766 8.57851 18.8815 11.0689 18.3981 11.5511C18.2643 11.6846 18.0978 11.9722 18.028 12.1904C17.9001 12.5904 17.4324 12.9638 16.2294 13.6263C14.818 14.4036 11.9845 14.0227 10.65 12.8761C9.88967 12.2229 8.65837 10.2814 8.30027 9.17107C7.99787 8.23346 7.98436 7.97117 8.18899 7.01016C8.31708 6.40858 8.47249 5.66295 8.53434 5.35319C8.59617 5.04343 8.8046 4.56616 8.99747 4.2926C9.19034 4.01904 9.34848 3.70259 9.34889 3.58938C9.34931 3.47618 9.43557 3.38387 9.5406 3.38426C9.64562 3.38464 9.81919 3.19506 9.92628 2.96297C10.2498 2.26178 13.1431 0.579464 14.02 0.582695C14.192 0.583327 14.417 0.499708 14.5201 0.396871C14.7719 0.14566 17.6159 0.042609 18.8955 0.238329C20.5135 0.48579 20.7854 0.567752 22.002 1.17469C24.5546 2.44807 26.358 5.0251 26.9975 8.31318C27.1304 8.99629 27.2479 9.32774 27.2585 9.04972C27.2692 8.77171 27.351 8.49923 27.4403 8.44421C27.5304 8.38876 27.5179 7.9654 27.4123 7.49395C27.3076 7.02632 27.2853 6.58041 27.3627 6.50305C27.4402 6.42568 67.4327 6.34876 71.4114 6.33209L78.6454 6.30177L79.4328 6.87942C80.327 7.53534 80.3668 7.6774 79.8432 8.34141C79.1671 9.19861 79.3151 9.33009 80.9627 9.33615L82.4597 9.34183L81.9717 8.78733C81.167 7.87304 80.9286 7.24995 80.7899 5.69818C80.5607 3.13473 81.4732 1.43475 83.5751 0.509638C84.6185 0.0503947 88.084 0.017326 90.8477 0.440264C91.8538 0.594218 93.3238 0.77546 94.1144 0.843029C95.2726 0.942018 95.6794 1.06381 96.2085 1.46995C96.5696 1.74719 96.8678 2.07684 96.8711 2.2025C96.8739 2.32817 97.0178 2.73026 97.1897 3.09605L97.5023 3.76113L99.6782 3.76915L101.854 3.77718L102.358 2.69878C102.992 1.33895 103.527 1.08328 106.324 0.80072C108.385 0.59256 110.29 0.365746 112.215 0.0992759C115.814 -0.398637 118.155 1.56346 118.331 5.22452C118.392 6.48114 118.338 6.83655 117.976 7.57158C117.741 8.04799 117.393 8.58845 117.203 8.7726C116.62 9.33574 116.802 9.46832 118.164 9.47334C118.966 9.47618 119.472 9.40063 119.473 9.27776C119.473 9.16754 119.259 8.79199 118.996 8.44324C118.533 7.82852 118.529 7.79869 118.862 7.46896C119.847 6.49531 119.665 6.5174 127.662 6.40006L172.617 6.29005L172.579 7.84681C172.552 8.94806 172.609 9.42774 172.774 9.48613C172.931 9.54166 173.008 9.35907 173.01 8.92896C173.016 7.23792 174.401 4.42649 176.042 2.77508C177.372 1.4368 178.553 0.768956 180.453 0.282263C181.795 -0.0617594 184.932 -0.100659 185.698 0.217212C187.542 0.981438 187.995 1.26921 188.93 2.27357C192.448 6.04972 192.275 11.9284 188.589 13.8466C186.942 14.7037 185.758 14.8407 184.287 14.3443C182.078 13.5989 180.664 11.7903 180.672 9.72027C180.675 8.91901 181.047 7.79594 181.407 7.50174C181.721 7.24522 182.015 6.7525 181.854 6.75191C181.498 6.75049 180.704 7.65288 180.317 8.49766C180.046 9.09109 179.924 9.73835 179.921 10.6038C179.914 12.2619 180.255 12.8959 182.242 14.9216C184.155 16.8723 186.282 17.7246 189.148 17.6883C190.751 17.668 192.776 17.4506 193.684 17.2015C194.089 17.0906 194.105 17.1326 194.102 18.2822C194.098 19.9854 194.302 84.6322 194.478 84.6328C194.692 84.6335 196.746 82.5762 197.14 81.9655C197.524 81.3707 197.933 81.3036 198.192 81.7931C198.291 81.9806 198.709 82.547 199.12 83.0516L199.869 83.9691L199.808 90.08L199.747 96.1909L199.186 96.3132C197.542 96.671 196.469 97.9798 196.463 99.6331C196.46 100.392 196.559 100.653 197.065 101.225C197.663 101.902 199.044 102.673 199.677 102.683C199.979 102.688 200.004 103.042 200 107.338C199.993 115.18 199.998 115.091 199.491 115.861C199.246 116.234 198.819 116.782 198.544 117.079L198.044 117.617L197.643 117.084C196.941 116.149 194.963 114.13 194.748 114.129C194.613 114.129 194.539 178.673 194.535 179.709L194.529 181.297L193.826 181.819C193.44 182.107 193.08 182.399 193.028 182.468C192.975 182.537 191.797 182.621 190.41 182.654C188.356 182.703 187.696 182.79 186.858 183.124C185.22 183.776 184.406 184.673 184.16 186.093C184.104 186.417 184.001 186.924 183.93 187.22C183.738 188.024 184.102 187.548 184.499 186.476C184.776 185.729 185.022 185.448 185.891 184.888C186.896 184.24 187.021 184.209 188.482 184.23C189.567 184.246 190.155 184.344 190.484 184.562C190.741 184.733 191.083 184.873 191.244 184.873C191.405 184.874 191.585 185.001 191.643 185.157C191.702 185.312 191.829 185.439 191.926 185.439C192.205 185.44 193.093 186.495 193.597 187.424C193.985 188.139 194.391 190.49 194.249 191.198C193.764 193.614 193.32 194.493 191.956 195.736C188.346 199.027 182.703 198.877 179.578 195.407C178.533 194.246 177.671 192.848 177.304 191.717C177.071 190.997 176.629 190.831 175.337 190.978L174.648 191.056L174.774 192.021C174.844 192.551 175.01 193.201 175.143 193.465C175.364 193.904 175.332 194.006 174.761 194.684L174.138 195.425L128.482 195.45L120.284 195.475L119.931 194.716C119.47 193.727 118.43 192.685 117.752 192.533C117.457 192.467 117.167 192.334 117.109 192.238C116.913 191.918 116.45 192.058 115.992 192.578C115.627 192.991 115.538 193.296 115.538 194.126C115.539 195.058 115.596 195.205 116.127 195.631C116.595 196.007 116.925 196.103 117.75 196.105C118.32 196.105 119.027 196.033 119.321 195.944C119.851 195.783 119.855 195.788 119.718 196.406C119.641 196.75 119.462 197.147 119.32 197.289C119.178 197.431 119.061 197.613 119.061 197.693C119.059 198.019 118.152 198.826 117.179 199.367C116.206 199.907 116.038 199.939 114.456 199.885C113.052 199.838 112.648 199.752 112.034 199.368C110.421 198.36 109.749 197.612 108.883 195.857L108.19 194.456L107.337 194.509C106.495 194.561 106.474 194.579 105.892 195.717C105.284 196.904 104.432 198.129 103.922 198.55C102.548 199.683 99.7267 200.272 97.5536 199.878ZM101.06 199.482C101.189 199.469 101.294 199.388 101.295 199.302C101.295 199.216 101.457 199.146 101.654 199.147C102.423 199.15 103.227 198.546 104.717 196.845C105.211 196.281 104.965 196.241 104.261 196.77C101.983 198.484 98.465 198.848 96.0566 197.621C95.3948 197.284 94.8256 196.934 94.7916 196.844C94.7577 196.753 94.6452 196.679 94.5418 196.679C94.4383 196.678 94.1964 196.487 94.0043 196.254C93.8121 196.021 93.6518 195.929 93.6479 196.051C93.6436 196.173 93.7666 196.4 93.9203 196.555C94.0739 196.711 94.1994 196.919 94.199 197.017C94.1976 197.313 95.6254 198.707 96.285 199.054C96.6239 199.232 97.1924 199.412 97.5484 199.453C97.9044 199.494 98.2406 199.575 98.2956 199.633C98.3785 199.72 99.0907 199.682 101.06 199.482ZM15.4605 197.312C16.4556 197.171 18.2385 196.408 18.8456 195.862C19.0085 195.716 19.1942 195.597 19.2583 195.597C19.4472 195.598 21.269 193.725 21.2697 193.529C21.2701 193.431 21.3389 193.35 21.4225 193.351C21.5062 193.351 21.8607 192.718 22.2103 191.944C22.5599 191.171 22.9355 190.528 23.0449 190.517C23.4945 190.469 71.8187 190.373 75.8509 190.385C80.4592 190.397 81.7112 190.579 82.845 191.396C84.4163 192.529 84.5312 194.845 83.0788 196.108C82.8725 196.287 82.3056 196.489 81.8189 196.555C80.5632 196.727 80.9211 197.063 82.2608 196.971C85.801 196.727 86.1635 192.314 82.8201 190.163C81.1421 189.084 81.2846 189.094 69.3166 189.191C60.0236 189.266 21.659 189.32 21.6582 189.546C21.6568 189.949 20.6875 192.274 20.4017 192.559C20.2637 192.696 20.1504 192.888 20.15 192.984C20.1479 193.532 17.5983 195.347 16.0842 195.878C14.6554 196.378 13.7134 196.433 12.2543 196.098C9.39672 195.444 7.43689 192.762 7.68102 189.84C7.85008 187.816 8.81153 186.54 10.5811 185.99C11.952 185.565 13.863 186.322 14.4862 187.539C14.9741 188.491 14.7072 189.851 13.8962 190.546C13.5906 190.807 13.576 190.868 13.8171 190.874C13.9798 190.878 14.4143 190.581 14.7825 190.213C15.476 189.522 15.7689 188.651 15.5951 187.798C15.5412 187.534 15.4587 187.124 15.4119 186.888C15.1851 185.747 13.3452 184.492 11.8881 184.485C11.0544 184.481 9.39771 184.986 8.99426 185.367C8.85792 185.496 8.67471 185.601 8.58715 185.601C8.2597 185.599 7.19908 186.842 6.83104 187.659C6.52763 188.332 6.44895 188.895 6.44668 190.412C6.44386 192.106 6.50095 192.438 6.95247 193.375C7.96258 195.469 9.83313 196.995 11.9422 197.446C12.7467 197.617 13.5143 197.588 15.4605 197.312ZM188.153 197.277C190.395 196.641 192.249 195.094 193.095 193.151C193.379 192.498 193.46 191.892 193.459 190.428C193.456 188.731 193.406 188.452 192.942 187.603C192.37 186.556 191.614 185.815 190.495 185.207C189.463 184.646 187.197 184.611 186.386 185.144C185.523 185.71 185.273 186.015 184.922 186.928C184.54 187.922 184.518 188.398 184.808 189.383C185.054 190.221 185.424 190.38 185.251 189.574C184.922 188.043 186.18 186.124 187.654 185.909C188.562 185.776 190.263 186.057 190.361 186.356C190.398 186.469 190.52 186.561 190.633 186.562C190.746 186.562 191.106 186.859 191.435 187.222C192.1 187.958 192.63 189.382 192.626 190.427C192.623 191.305 192.111 193.06 191.754 193.416C191.603 193.567 191.473 193.757 191.465 193.838C191.441 194.081 190.233 195.347 189.81 195.573C188.177 196.443 185.241 196.758 183.762 196.222C182.472 195.754 180.119 193.798 179.706 192.85C179.608 192.624 179.366 192.184 179.169 191.874C178.972 191.563 178.717 190.979 178.601 190.576L178.391 189.842L177.905 190.327L177.42 190.811L178.014 191.999C178.707 193.385 178.984 193.858 179.259 194.124C179.369 194.23 179.603 194.554 179.781 194.844C180.271 195.646 182.69 197.172 183.908 197.447C185.042 197.704 186.912 197.629 188.153 197.277ZM117.942 196.825C116.785 196.701 116.507 196.588 115.8 195.951C114.94 195.176 114.719 193.973 115.229 192.847C115.533 192.177 116.528 191.311 116.992 191.313C117.115 191.313 117.215 191.24 117.215 191.149C117.215 191.058 117.759 190.849 118.424 190.684C119.463 190.425 121.029 190.389 129.609 190.42L177.044 190.457L177.476 189.998L177.908 189.54L177.464 189.432C176.724 189.252 119.629 189.373 118.591 189.563C118.06 189.661 117.512 189.83 117.375 189.938C117.238 190.046 116.897 190.188 116.619 190.254C116.34 190.32 115.737 190.731 115.278 191.167C114.227 192.169 113.763 193.401 114.012 194.533C114.377 196.191 115.435 196.938 117.381 196.911C118.049 196.902 118.302 196.863 117.942 196.825ZM73.2689 194.778C75.9937 194.752 78.3285 194.693 78.4572 194.648C78.5859 194.603 78.6917 194.423 78.6923 194.25C78.6944 193.716 80.0016 192.309 80.8772 191.899L81.7081 191.511L81.2813 191.205C80.7463 190.822 76.0702 190.704 68.9832 190.896L26.9233 191.025L26.7109 192.339C26.5941 193.062 26.4018 193.891 26.2836 194.181C26.1653 194.472 26.2839 194.436 26.2836 194.538C27.3772 194.933 64.2363 195.036 65.837 194.953C67.1997 194.882 70.544 194.804 73.2689 194.778ZM173.299 194.882C173.331 194.85 173.191 194.291 172.987 193.641C172.782 192.99 172.616 192.131 172.618 191.731L172.621 191.004L127.225 190.975C120.273 190.949 119.159 190.985 118.251 191.262C117.68 191.437 117.214 191.642 117.213 191.72C117.213 191.797 117.504 191.916 117.861 191.985C118.561 192.12 119.84 193.354 120.242 194.284C120.365 194.569 120.522 194.844 120.591 194.896C120.724 194.996 173.199 194.982 173.299 194.882ZM25.8378 194.074C25.9509 193.842 26.091 193.314 26.1492 192.901C26.2073 192.487 26.3108 191.875 26.379 191.539C26.4935 190.976 26.4658 190.929 26.0158 190.927C25.6363 190.926 25.5034 191.04 25.4143 191.442C25.3513 191.726 25.2219 192.203 25.1264 192.502C24.8869 193.253 24.9065 193.999 25.1729 194.268C25.4885 194.588 25.6038 194.554 25.8378 194.074ZM174.466 194.134C174.632 193.825 174.649 193.581 174.522 193.336C174.421 193.142 174.281 192.539 174.21 191.996C174.095 191.116 174.032 191.009 173.631 191.008C173.237 191.007 173.181 191.093 173.175 191.711C173.168 192.594 173.755 194.574 174.025 194.577C174.136 194.579 174.335 194.379 174.466 194.134ZM93.1758 186.845C93.8253 185.609 95.6856 183.778 96.4539 183.618C96.7317 183.561 97.2357 183.393 97.5739 183.246C98.9906 182.628 102.507 183.224 103.461 184.244C103.687 184.485 103.935 184.685 104.012 184.687C104.368 184.696 105.847 186.671 106.09 187.462C106.253 187.992 107.12 188.173 108.779 188.024C109.67 187.943 110.116 187.806 110.395 187.524C111.322 186.589 112.35 185.733 112.857 185.474C113.158 185.32 113.447 185.152 113.498 185.101C113.55 185.049 114.013 184.813 114.528 184.576C115.043 184.339 115.611 184.066 115.79 183.97C115.969 183.874 116.306 183.796 116.538 183.796C116.771 183.797 117.593 183.665 118.365 183.502C119.522 183.259 121.234 183.209 128.128 183.216L173.946 183.225L174.333 182.375C174.947 181.025 175.36 180.457 176.779 179.014C178.853 176.906 181.394 175.598 184.126 175.232C184.976 175.118 185.711 174.993 185.758 174.953C185.805 174.913 185.825 106.642 185.801 101.454C185.778 96.2661 185.758 91.1143 185.757 90.0054L185.756 25.3724L184.822 25.1749C184.308 25.0663 183.692 24.9392 183.452 24.8924C182.618 24.7294 181.294 24.2353 180.62 23.8349C180.466 23.7435 179.962 23.4739 179.501 23.2358C178.567 22.7545 175.028 19.3072 175.03 18.8804C175.03 18.7309 174.919 18.5144 174.782 18.3994C174.645 18.2844 174.43 17.8717 174.303 17.4823L174.074 16.7742L132.377 16.8031C130.046 16.819 126.649 16.8276 124.829 16.8223L121.52 16.8122L120.918 17.6843C120.154 18.7909 119.846 19.0826 119.05 19.4531C117.832 20.0194 117.066 20.1774 115.563 20.1719C113.394 20.1639 111.784 19.4518 110.141 17.7736C109.154 16.7655 107.962 14.5641 107.66 13.1916C107.581 12.8297 107.387 12.0708 107.229 11.5052C106.564 9.11653 107.15 5.96531 108.757 3.28668C108.957 2.95226 109.184 2.67832 109.261 2.67795C109.339 2.67758 109.402 2.55048 109.403 2.39548C109.403 2.24049 109.467 2.11392 109.544 2.1142C109.621 2.11448 109.915 1.82591 110.198 1.47295L110.711 0.831197L109.639 0.926683C109.049 0.979156 107.977 1.13803 107.257 1.27961C106.537 1.4212 105.464 1.53533 104.872 1.53324C104.075 1.5304 103.708 1.61907 103.45 1.87644C103.012 2.31317 102.482 3.35792 102.48 3.78778C102.479 4.2703 102.113 4.34128 99.6743 4.3323C97.2066 4.32321 96.8703 4.25183 96.8722 3.7376C96.8736 3.32193 96.3318 2.24161 95.905 1.80956C95.7004 1.60251 94.9819 1.448 93.5813 1.30987C92.4661 1.19989 91.2602 1.024 90.9013 0.918991C90.5425 0.813981 89.9258 0.726875 89.5308 0.725419L88.8126 0.722581L89.5965 1.61784C90.3098 2.43252 90.983 3.69171 91.933 5.98833C92.2151 6.67046 92.2789 7.30824 92.2714 9.37125C92.2631 11.6543 92.2104 12.0571 91.7553 13.3207C89.9654 18.2896 87.0993 20.412 82.4556 20.2075C80.7468 20.1322 80.5281 20.0772 79.5231 19.47C78.8918 19.0886 78.1183 18.3972 77.6757 17.8187L76.9144 16.8235L69.623 16.9215C65.6128 16.9754 25.5606 17.096 25.4419 17.1894C25.3231 17.2829 25.1732 17.567 25.1088 17.8209C25.0445 18.0747 24.9093 18.2821 24.8084 18.2817C24.7075 18.2814 24.6246 18.4004 24.624 18.5462C24.6226 18.8713 21.4052 22.2145 21.0946 22.2133C20.972 22.2129 20.8714 22.2799 20.8711 22.3622C20.8706 22.5199 18.1774 23.892 17.2189 24.223C16.91 24.3297 16.1311 24.5188 15.488 24.6434L14.3188 24.8699L14.2774 93.1441C14.2547 96.2556 14.212 101.408 14.1823 104.593C14.1231 110.963 14.0819 174.724 15.2684 174.728C15.7273 174.73 16.1727 174.887 17.6894 175.584C17.9974 175.725 18.4384 175.895 18.6695 175.962C18.9007 176.028 19.0894 176.162 19.0891 176.258C19.0887 176.354 19.2193 176.434 19.3791 176.434C19.539 176.435 20.1794 176.797 20.8023 177.238C21.4251 177.679 22.0633 178.126 22.2204 178.23C22.7673 178.591 24.6814 180.695 24.6805 180.934C24.6803 181.003 24.8907 181.29 25.1482 181.572C25.4056 181.853 25.6938 182.29 25.7887 182.543L25.9611 183.004L72.2259 183.113C81.3577 183.216 81.8706 183.24 82.9372 183.616C85.7416 184.606 87.2056 185.596 88.6857 187.501C89.0824 188.011 89.1255 188.021 90.8466 187.978L92.6028 187.935L93.1758 186.845ZM68.2686 19.9894C67.6403 19.7931 67.3643 19.2934 67.555 18.6973C67.7306 18.1484 69.2952 17.8384 71.7308 17.8698C74.3673 17.9038 75.0873 18.2206 74.8208 19.2297C74.767 19.4335 74.4983 19.7084 74.2238 19.8406C73.6038 20.139 69.1072 20.2514 68.2686 19.9894ZM73.961 19.3425C74.9601 18.7028 74.1914 18.4357 71.3004 18.4179C69.9686 18.4094 69.0295 18.4951 68.6354 18.6604C67.1449 19.2854 68.5016 19.7512 71.5666 19.6668C72.8761 19.6307 73.6812 19.5217 73.961 19.3425ZM125.336 20.0409C124.127 19.6082 123.894 19.2378 124.455 18.6415C125.661 17.361 131.791 17.7278 131.773 19.0793C131.766 19.6031 131.534 19.7564 130.246 20.0883C128.674 20.4933 126.542 20.4728 125.336 20.0409ZM130.211 19.6362C130.97 19.4472 131.419 19.0582 131.17 18.8058C131.12 18.7547 130.29 18.6202 129.325 18.5069C127.986 18.3495 127.27 18.3564 126.291 18.5362C125.141 18.7474 124.61 19.0784 124.919 19.3912C125.338 19.8158 128.84 19.9779 130.211 19.6362ZM98.0323 18.9004C96.148 18.5205 94.5502 17.2276 94.2455 15.8364C93.7911 13.7617 95.0825 11.7595 97.3223 11.066C99.6361 10.3496 102.397 10.7426 103.634 11.9644C104.348 12.6696 105.061 14.0697 105.058 14.7632C105.055 15.5429 104.388 16.8226 103.647 17.4724C102.575 18.4112 102.184 18.6091 101.009 18.8089C100.4 18.9125 99.7331 19.0264 99.5273 19.0619C99.3215 19.0974 98.6488 19.0247 98.0323 18.9004ZM100.385 18.4105C101.635 18.2203 103.366 17.463 103.367 17.1053C103.367 17.0069 101.678 16.9273 99.4127 16.919C95.4697 16.9044 95.4588 16.9058 95.7948 17.2814C95.9802 17.4887 96.238 17.6587 96.3677 17.6592C96.4974 17.6597 96.6328 17.7495 96.6686 17.8588C96.7044 17.968 97.1945 18.1718 97.7575 18.3117C99.0958 18.644 98.8992 18.6366 100.385 18.4105ZM104.044 16.1212C104.264 15.4387 103.946 14.5197 103.37 14.1752C103.067 13.9933 102.818 13.7782 102.818 13.6972C102.819 13.6161 102.702 13.5494 102.56 13.5489C102.418 13.5484 102.06 13.4208 101.766 13.2653C100.988 12.8534 97.7758 12.8632 96.8659 13.2801C95.8935 13.7258 94.7753 14.892 94.7732 15.4627C94.769 16.5526 94.6038 16.5163 99.4622 16.4901C103.616 16.4676 103.941 16.4415 104.044 16.1212ZM96.6037 12.8709C97.4827 12.4186 97.777 12.3679 99.4202 12.3856C100.955 12.4021 101.428 12.4831 102.314 12.8804C102.896 13.1417 103.549 13.5342 103.764 13.7526C104.249 14.2432 104.398 14.1388 104.084 13.5278C103.74 12.8552 102.812 12 102.015 11.6212C101.069 11.171 98.7675 11.1771 97.4368 11.6335C96.3964 11.9903 95.0745 13.0949 94.9008 13.7525C94.8023 14.1255 94.8035 14.1255 95.212 13.7518C95.4376 13.5453 96.0638 13.1488 96.6037 12.8709ZM23.5966 183.105C23.6925 183.01 23.2374 181.953 22.9949 181.709C22.9434 181.657 22.66 181.254 22.3651 180.814C22.0703 180.374 21.7563 180.013 21.6675 180.013C21.5787 180.012 21.5063 179.924 21.5067 179.816C21.5073 179.648 21.0989 179.223 19.0699 177.279C18.9076 177.123 18.7044 176.996 18.6183 176.996C18.5322 176.995 18.3079 176.854 18.1199 176.682C17.4695 176.086 17.6252 176.527 18.3524 177.34C18.7539 177.789 19.082 178.267 19.0815 178.402C19.081 178.537 19.2079 178.698 19.3635 178.758C19.519 178.819 19.7297 179.061 19.8316 179.297C19.9336 179.532 20.1791 179.979 20.3772 180.29C20.7696 180.905 21.4972 182.426 21.4965 182.629C21.495 182.96 22.0155 183.208 22.7157 183.21C23.1407 183.212 23.5371 183.165 23.5966 183.105ZM25.6082 182.932C25.6086 182.83 24.8579 181.703 24.6723 181.527C24.6176 181.475 24.2546 181.034 23.8657 180.546C22.7543 179.153 19.835 176.853 19.8331 177.369C19.8327 177.476 19.9586 177.564 20.1128 177.565C20.267 177.565 20.3955 177.629 20.3984 177.707C20.4012 177.784 20.8647 178.356 21.4283 178.978C21.9918 179.599 22.6802 180.447 22.958 180.862C23.2358 181.277 23.5261 181.645 23.6031 181.679C23.6801 181.714 23.7428 181.815 23.7425 181.903C23.7422 181.991 23.8232 182.28 23.9225 182.545C24.075 182.953 24.2198 183.028 24.8554 183.03C25.2693 183.032 25.608 182.988 25.6082 182.932ZM175.653 182.608C175.889 181.886 177.199 179.834 177.957 179C178.191 178.743 178.738 178.216 179.173 177.831C180.174 176.942 179.894 176.909 178.809 177.788C176.716 179.483 175.696 180.663 174.899 182.313C174.423 183.299 174.423 183.308 174.971 183.31C175.329 183.312 175.472 183.165 175.653 182.608ZM177.923 183.086C178.087 182.958 178.483 182.346 178.802 181.727C179.122 181.109 179.574 180.375 179.808 180.098C180.042 179.82 180.425 179.346 180.659 179.044C181.479 177.985 182.682 176.81 183.471 176.297C183.909 176.013 184.267 175.743 184.267 175.698C184.268 175.456 181.864 176.518 180.842 177.211C180.451 177.476 180.071 177.695 179.999 177.697C179.926 177.699 179.487 178.13 179.022 178.656C178.557 179.181 178.043 179.748 177.879 179.916C177.419 180.386 176.464 181.863 176.349 182.282C176.292 182.488 176.184 182.805 176.11 182.986C175.992 183.269 176.086 183.314 176.799 183.317C177.253 183.318 177.759 183.215 177.923 183.086ZM13.0861 181.974C13.0863 181.933 12.956 181.849 12.7967 181.787C12.6305 181.722 12.5554 181.754 12.6205 181.86C12.7296 182.039 13.0856 182.126 13.0861 181.974ZM10.5635 181.6C12.4016 181.637 12.4218 181.632 11.7796 181.342C11.0848 181.027 7.08737 180.86 6.81013 181.134C6.50527 181.436 7.36965 181.829 8.03953 181.694C8.39967 181.621 9.53547 181.579 10.5635 181.6ZM192.799 181.732C192.907 181.408 190.2 181.432 189.199 181.764C188.495 181.998 188.576 182.011 190.585 181.989C192.105 181.973 192.743 181.899 192.799 181.732ZM1.82465 110.451L1.82458 104.58L1.2664 104.07L0.708224 103.561L0.545058 103.974C0.455323 104.201 0.422087 106.746 0.471236 109.629L0.560529 114.872L1.05638 115.596C1.3291 115.995 1.61353 116.321 1.68849 116.322C1.76343 116.322 1.82469 113.68 1.82465 110.451ZM5.14877 113.22L5.62595 113.101L5.67767 102.648C5.70615 96.899 5.73937 91.2652 5.75167 90.1286C5.76396 88.992 5.76367 87.4174 5.75096 86.6295C5.72806 85.212 5.7222 85.1957 5.19321 85.0874C4.89917 85.0272 4.18586 84.5405 3.60808 84.006C2.65072 83.1202 2.55704 83.0731 2.55162 83.4755C2.54879 83.7184 2.49 86.2205 2.422 89.0358C2.3049 93.883 2.31652 94.1615 2.6409 94.2832C3.41484 94.5736 4.18248 95.3633 4.76624 96.4695C5.33166 97.541 5.38373 97.7797 5.37023 99.2389C5.35751 100.608 5.2801 100.983 4.82626 101.867C4.28571 102.921 3.65713 103.64 2.77017 104.219L2.27152 104.545L2.28571 110.125L2.29991 115.705L3.4858 114.522C4.13804 113.871 4.88631 113.285 5.14877 113.22ZM198.835 115.741C198.835 115.608 198.959 115.453 199.11 115.395C199.343 115.306 199.383 114.434 199.381 109.552C199.38 106.396 199.341 103.813 199.295 103.813C199.25 103.813 198.982 104.006 198.701 104.242L198.19 104.671L198.216 107.575C198.23 109.172 198.248 111.765 198.257 113.338C198.27 115.795 198.312 116.182 198.553 116.09C198.707 116.031 198.834 115.874 198.835 115.741ZM197.636 110.19C197.538 105.453 197.474 104.51 197.242 104.42C196.42 104.1 195.188 102.4 194.857 101.13C194.204 98.6308 195.017 96.0558 196.88 94.7205L197.613 94.1949L197.617 88.3789L197.622 82.5629L197.006 83.0846C196.667 83.3716 196.229 83.8381 196.033 84.1212C195.837 84.4043 195.571 84.6358 195.443 84.6357C195.314 84.6356 195.209 84.7217 195.208 84.8272C195.208 84.9328 194.996 85.1149 194.738 85.232L194.269 85.445L194.344 90.2521C194.385 92.896 194.411 99.0036 194.402 103.824C194.393 108.645 194.428 112.757 194.48 112.96C194.532 113.164 194.757 113.417 194.979 113.523C195.202 113.628 195.886 114.215 196.501 114.827C197.116 115.439 197.649 115.92 197.687 115.896C197.724 115.872 197.702 113.304 197.636 110.19ZM16.7176 176.496C16.3915 176.233 15.594 175.745 14.9456 175.411L13.7666 174.802L13.646 103.019C13.5122 94.3796 13.6823 23.8774 14.0024 23.8786C14.1928 23.8793 16.9447 22.5765 16.945 22.4855C16.9451 22.4613 16.503 22.5644 15.9627 22.7146C15.4223 22.8648 14.5594 23.042 14.045 23.1083C13.5307 23.1747 13.0004 23.297 12.8666 23.38C12.6697 23.5023 12.6328 88.546 12.6729 98.7658C12.7001 105.706 12.7253 175.431 12.7289 175.497C12.7324 175.562 13.1348 175.675 13.6229 175.748C14.6197 175.896 16.6169 176.582 16.7671 176.828C16.8211 176.917 16.9655 176.986 17.088 176.981C17.2105 176.977 17.0439 176.758 16.7176 176.496ZM185.217 176.209C185.401 176.21 185.598 176.136 185.655 176.044C185.711 175.953 186.129 175.824 186.582 175.757C187.467 175.627 187.787 175.165 187.443 174.513C187.341 174.321 187.281 105.294 187.297 98.3415C187.313 91.8242 187.258 23.8328 187.176 23.7814C187.094 23.7301 186.882 23.8476 186.705 24.0426C186.408 24.3709 186.384 87.9147 186.388 99.1942L186.393 175.368L185.844 175.559C184.927 175.879 183.142 176.816 183.141 176.978C183.141 177.062 183.532 176.922 184.011 176.669C184.49 176.415 185.033 176.208 185.217 176.209ZM4.3625 101.584C4.746 100.815 4.82975 100.376 4.82815 99.143C4.82673 97.8537 4.75106 97.5006 4.29761 96.6595C3.83729 95.8057 2.69393 94.7202 2.25323 94.7185C2.0339 94.7178 1.01652 95.4685 1.01593 95.6316C1.01564 95.7088 1.47637 95.966 2.03976 96.2031C2.69548 96.4791 3.26581 96.8921 3.62464 97.3508C4.12489 97.9904 4.18459 98.206 4.17978 99.3555C4.17554 100.306 4.07714 100.802 3.80373 101.249C3.39438 101.919 1.85517 102.971 1.26955 102.983C0.956601 102.989 1.00163 103.079 1.54566 103.536L2.1957 104.081L3.04531 103.301C3.51259 102.872 4.10532 102.099 4.3625 101.584ZM198.637 103.518C198.98 103.175 198.978 103.172 197.983 102.716C196.805 102.175 196.157 101.462 195.879 100.399C195.454 98.7744 196.378 96.8812 197.944 96.1657C198.32 95.9943 198.662 95.8265 198.706 95.7927C198.803 95.717 197.957 94.7905 197.79 94.7899C197.567 94.7891 196.494 95.8346 196.051 96.4849C194.625 98.5799 195.073 101.845 197.014 103.497C197.631 104.023 198.124 104.029 198.637 103.518ZM1.29949 94.6052L1.82262 94.1216L1.96546 88.4549C2.04402 85.3382 2.07894 82.7252 2.04302 82.6482C2.00713 82.5711 1.68696 82.7898 1.33153 83.1342L0.685292 83.7603L0.668332 88.4034C0.657946 91.2447 0.575794 93.1872 0.456552 93.4092C0.322239 93.6592 0.321831 93.7721 0.45514 93.7726C0.561578 93.7729 0.647595 94.0692 0.646274 94.4308C0.644861 94.7925 0.673619 95.0885 0.710079 95.0886C0.746467 95.0887 1.01177 94.8712 1.29949 94.6052ZM199.304 89.5702L199.324 83.9693L198.765 83.4273L198.207 82.8852L198.191 84.4703C198.182 85.342 198.177 87.9474 198.179 90.2599C198.183 94.3505 198.194 94.4739 198.593 94.811C198.819 95.0016 199.066 95.1606 199.143 95.1643C199.22 95.1679 199.293 92.6507 199.304 89.5702ZM15.6799 24.1428C16.9208 23.8224 17.8256 23.4922 18.6874 23.0455C18.979 22.8943 19.337 22.771 19.4829 22.7715C19.6288 22.7721 19.7485 22.6982 19.7488 22.6074C19.7491 22.5166 20.0062 22.3365 20.3201 22.2072C20.9739 21.9379 22.9462 20.0242 23.6436 18.9825C23.9024 18.5959 24.1714 18.2799 24.2416 18.2802C24.3116 18.2804 24.5105 17.9852 24.6835 17.6242L24.9979 16.9679L24.2611 16.965C23.5697 16.9622 23.4579 17.046 22.4469 18.3204C21.8543 19.0673 21.2742 19.7374 21.1578 19.8094C21.0414 19.8814 20.5453 20.3234 20.0554 20.7917C19.5656 21.2599 19.1198 21.6428 19.0648 21.6426C19.0098 21.6424 18.6507 21.8904 18.2667 22.1937C17.4779 22.8169 15.143 24.0705 14.7738 24.0691C14.6402 24.0687 14.4786 24.1526 14.4147 24.2557C14.2628 24.5007 14.3092 24.4967 15.6799 24.1428ZM185.665 24.6076C185.666 24.501 185.519 24.3675 185.339 24.3108C185.159 24.2543 184.867 24.129 184.688 24.0325C184.51 23.9361 184.274 23.8569 184.163 23.8565C183.937 23.8557 181.891 22.8822 181.746 22.7068C181.695 22.6447 181.518 22.5161 181.352 22.421C179.736 21.4937 176.961 18.5482 176.349 17.1113C176.205 16.7727 176.018 16.6874 175.416 16.6852C174.483 16.6816 174.47 16.8511 175.299 18.2457C175.649 18.8351 175.89 19.3171 175.834 19.3169C175.55 19.3162 178.864 22.3241 179.548 22.6884C179.985 22.9214 180.678 23.2987 181.089 23.5269C182.05 24.0612 183.076 24.4245 183.935 24.5348C184.311 24.5831 184.658 24.6621 184.705 24.7103C184.875 24.8824 185.664 24.7979 185.665 24.6076ZM186.428 23.518L186.855 23.1728L186.03 23.0371C185.576 22.9625 185.036 22.8721 184.83 22.8363C184.105 22.7101 182.393 22.0861 181.582 21.6526C180.62 21.1382 180.503 21.1143 180.816 21.4957C180.943 21.6512 181.159 21.7788 181.296 21.7793C181.432 21.7798 181.611 21.8915 181.693 22.0275C181.967 22.4841 184.859 23.7682 185.787 23.8455C185.905 23.8552 186.193 23.7079 186.428 23.518ZM86.5172 19.0797C87.1961 18.7626 87.7799 18.433 87.8144 18.3473C87.849 18.2617 87.9585 18.1919 88.0576 18.1922C88.3021 18.1929 89.0781 17.3394 89.5765 16.5212C89.8011 16.1526 90.0315 15.8089 90.0886 15.7574C90.33 15.5396 90.8771 14.2449 91.3452 12.784C91.8044 11.3507 91.8397 11.0299 91.7586 9.0281C91.6951 7.45868 91.5495 6.46683 91.244 5.52272C90.6842 3.79266 89.4426 1.88462 88.431 1.19982C87.7028 0.706867 87.4762 0.655503 85.9472 0.636651C84.5126 0.618971 84.1463 0.680961 83.4605 1.05712C82.2227 1.73619 81.2043 3.30963 81.1415 4.64011C81.0979 5.5633 81.4595 7.17639 81.8427 7.76896C82.2508 8.39977 83.5273 9.34565 83.9729 9.34729C86.0467 9.35496 87.2905 5.50606 85.581 4.37138C85.1461 4.08275 85.0758 4.08994 84.3695 4.49494C83.4083 5.04617 83.1319 4.78087 83.9281 4.07123C84.6553 3.42305 85.3921 3.37335 86.5264 3.89595C87.3379 4.26983 88.0816 4.9079 88.0804 5.22926C88.08 5.33259 88.1482 5.41739 88.232 5.4177C88.3158 5.41801 88.5337 5.73584 88.7163 6.12399C90.1319 9.13322 90.0839 12.2648 88.5757 15.3064C87.7494 16.9728 86.9171 17.8933 85.5652 18.6362C83.7533 19.6318 80.6533 19.1309 79.1024 17.5919C78.3763 16.8714 77.7567 16.6175 77.7551 17.0399C77.7544 17.3237 79.3539 18.8411 80.0563 19.2227C81.5342 20.0256 84.6396 19.9568 86.5172 19.0797ZM117.7 19.5004C118.193 19.3351 118.638 19.1458 118.69 19.0797C118.741 19.0137 119.099 18.7501 119.485 18.4942C119.871 18.2382 120.187 17.9231 120.189 17.7939C120.19 17.6647 120.255 17.5593 120.333 17.5596C120.411 17.5599 120.58 17.3914 120.709 17.1852C120.922 16.8464 120.898 16.8102 120.458 16.8086C120.155 16.8072 119.936 16.9307 119.876 17.1352C119.824 17.3159 119.346 17.7973 118.815 18.2051C117.978 18.8478 117.695 18.956 116.697 19.0166C115.619 19.0821 113.936 18.7027 113.374 18.2674C111.657 16.9383 110.971 16.0307 110.329 14.235C109.496 11.9054 109.511 9.17881 110.368 7.16703C110.666 6.46767 111.776 4.77479 112.241 4.31132C112.609 3.94417 113.545 3.77419 114.348 3.92864C115.147 4.08232 116.044 5.2369 115.698 5.66546C115.549 5.85021 115.397 5.75254 115.037 5.24032C114.433 4.38045 113.712 4.33875 112.931 5.11845C112.158 5.88924 112.171 6.90206 112.97 8.13768C113.598 9.11064 113.882 9.2629 115.085 9.27142C115.998 9.27781 116.526 8.93371 117.187 7.90352C117.633 7.20794 117.689 6.93917 117.697 5.43226C117.709 3.23429 117.29 2.27938 115.895 1.3209C114.276 0.208674 112.489 0.208422 111.047 1.32023C110.222 1.95686 108.672 4.27116 108.207 5.56207C107.699 6.97368 107.543 10.8056 107.943 12.0512C108.108 12.5636 108.242 13.1147 108.242 13.2758C108.241 13.4369 108.552 14.2253 108.933 15.0278C110.095 17.4774 112.235 19.2765 114.388 19.6135C115.848 19.842 116.777 19.8103 117.7 19.5004ZM85.3765 18.2006C85.7587 18.0055 86.2762 17.6269 86.5264 17.3595L86.9814 16.8732L82.9762 16.8655L78.971 16.8579L79.5301 17.3328C80.69 18.3182 81.2947 18.5266 83.0384 18.5418C84.298 18.5528 84.8438 18.4727 85.3765 18.2006ZM118.092 18.1619C118.372 17.9822 118.799 17.6244 119.041 17.367L119.482 16.8989L116.165 16.8353C114.341 16.8003 112.799 16.8215 112.738 16.8825C112.584 17.0358 113.403 17.6736 114.3 18.0989C115.31 18.5781 117.39 18.6127 118.092 18.1619ZM88.6107 14.296C88.6121 14.2185 88.6658 13.963 88.7293 13.7283L88.8447 13.3015L85.5967 13.341C82.5158 13.3785 82.3487 13.3994 82.3474 13.7478C82.3467 13.9795 82.5184 14.164 82.8129 14.2474C83.4511 14.4284 88.6069 14.4715 88.6107 14.296ZM116.632 14.0942C116.749 13.9527 116.794 13.6993 116.73 13.531C116.63 13.2656 116.209 13.2234 113.566 13.2137L110.518 13.2025L110.727 13.7668L110.937 14.3312L113.677 14.3413C115.773 14.3491 116.468 14.2909 116.632 14.0942ZM188.048 13.5793C191.358 11.8811 191.917 6.96559 189.236 3.12083C188.691 2.33842 188.275 1.9962 186.916 1.20815C185.848 0.589398 185.585 0.521006 183.879 0.420263C181.926 0.304886 180.274 0.580367 178.833 1.26183C177.78 1.75986 176.022 3.1287 176.021 3.45157C176.021 3.51682 175.858 3.70997 175.66 3.8808C174.909 4.52823 173.686 7.30428 173.51 8.7634C173.455 9.21485 173.315 9.67932 173.198 9.79554C173.046 9.94751 132.341 9.99943 124.181 9.98048C109.971 9.94747 110.377 9.93853 110.241 10.2895C110.181 10.4442 110.181 10.6978 110.239 10.8531C110.333 11.1003 112 11.1413 123.678 11.1843L174.467 11.2334L174.593 9.96578C174.735 8.54187 175.173 7.06827 175.676 6.32425C175.861 6.05067 176.012 5.75138 176.013 5.65919C176.014 5.21112 177.912 3.20629 178.934 2.57238C180.613 1.53074 184.273 1.40204 186.146 2.3187C187.165 2.81732 188.917 4.36831 188.916 4.77053C188.915 4.87929 189.093 5.34122 189.31 5.79702C189.655 6.51957 189.692 6.84625 189.599 8.34667C189.443 10.8543 188.627 12.1578 186.924 12.6176C186.007 12.8653 184.346 12.685 183.637 12.2609C181.774 11.1453 181.671 8.24283 183.463 7.33234C183.879 7.12114 184.396 6.94898 184.611 6.94977C185.162 6.9519 184.904 6.62888 184.235 6.47869C182.162 6.01292 180.466 9.19355 181.594 11.4348C182.05 12.3422 183.274 13.4172 184.281 13.7953C185.298 14.177 187.082 14.0748 188.048 13.5793ZM16.3489 12.9805C17.6057 12.2139 17.8957 11.8054 18.3051 10.2243C18.7264 8.59712 18.0983 7.13353 16.757 6.61717C15.8237 6.25788 15.578 6.37953 16.2393 6.87354C17.1115 7.52519 17.3512 7.94016 17.4576 8.98232C17.5694 10.0779 17.0383 11.1492 16.0531 11.8155C15.2523 12.3571 13.1397 12.4072 12.35 11.9033C10.8636 10.9548 10.0756 9.38462 10.0829 7.38583C10.0886 5.87062 10.7666 4.58989 12.1283 3.5229C13.7685 2.23761 14.4665 2.02754 17.3257 1.95853C19.7486 1.90009 19.7981 1.90712 21.007 2.4866C22.2486 3.08172 23.7476 4.50823 24.1786 5.50477C24.2905 5.7635 24.4323 6.01766 24.4937 6.06955C24.9102 6.42172 25.2544 7.68783 25.3485 9.21417L25.4557 10.9512L26.0349 11.0612C26.3535 11.1216 69.1136 11.1667 76.2339 11.1612L89.1798 11.1512L89.1826 10.5284L89.1854 9.90553L76.3833 9.95992C21.8136 10.0128 26.9023 10.0047 26.7176 9.6549C26.6132 9.45725 26.5287 9.0514 26.5298 8.75303C26.5348 7.45573 25.231 4.51484 24.1031 3.27826C23.7106 2.84798 23.302 2.4956 23.1951 2.49521C23.0881 2.49481 23.0009 2.41457 23.0013 2.31689C23.0016 2.21921 22.3555 1.81525 21.5654 1.41921L20.1289 0.699156L17.4084 0.689145C15.2774 0.681335 14.546 0.745378 14.0326 0.984887C13.6721 1.15305 12.8865 1.5185 12.2868 1.79698C11.6871 2.07547 11.151 2.42093 11.0956 2.56468C11.0401 2.70842 10.8985 2.82897 10.781 2.83257C10.538 2.83996 9.34643 4.38845 9.3453 4.69825C9.34489 4.81004 9.17509 5.2323 8.96797 5.63662C8.44536 6.65684 8.43791 8.69863 8.95391 9.48791C9.15707 9.79864 9.32333 10.1955 9.32336 10.3697C9.32327 10.7839 11.4155 12.9726 11.8127 12.974C11.9814 12.9747 12.119 13.0538 12.1187 13.15C12.118 13.4149 12.8166 13.5172 14.291 13.4678C15.3046 13.434 15.7968 13.3173 16.3489 12.9805ZM76.8524 9.18019C76.8552 8.99937 77.1027 8.40743 77.403 7.86477L77.949 6.8781L71.2805 6.90288L27.9382 6.92766L27.8784 8.19557L27.8185 9.46348L70.6702 9.4862C76.4278 9.50743 76.8481 9.48657 76.8524 9.18019ZM89.1873 9.29413C89.1887 8.89756 88.6298 7.09398 88.2884 6.39326C87.9417 5.68192 87.0149 4.66174 86.7142 4.66063C86.5817 4.66015 86.589 4.73777 86.7356 4.88616C86.8628 5.01497 86.9572 5.62993 86.9547 6.31397C86.9505 7.42462 86.652 8.21614 86.0199 8.79122C85.9633 8.8427 85.8011 9.0323 85.6593 9.21261C85.4175 9.52017 85.5186 9.54086 87.2939 9.5474C88.7817 9.55308 89.1865 9.49869 89.1873 9.29413ZM79.0201 9.00029C79.077 8.81968 79.2421 8.4512 79.3869 8.18146C79.6213 7.74477 79.6133 7.65723 79.3137 7.38273C78.7355 6.85302 77.9783 7.11415 77.9756 7.84417C77.975 8.02155 77.8964 8.19457 77.8011 8.22867C77.7057 8.26275 77.5695 8.52292 77.4983 8.80681C77.3727 9.3074 77.3922 9.32307 78.1427 9.32584C78.7162 9.32797 78.9435 9.24363 79.0201 9.00029ZM112.93 9.20124C112.931 9.06226 112.776 8.80685 112.587 8.63365C112.127 8.21162 111.749 6.99217 111.856 6.27452C111.973 5.49572 111.794 5.5403 111.372 6.39529C111.181 6.78208 110.908 7.3225 110.764 7.59623C110.621 7.86997 110.503 8.39792 110.501 8.76945L110.499 9.44497L111.714 9.44923C112.608 9.45278 112.929 9.38697 112.93 9.20124ZM121.426 9.0625C121.277 8.57387 120.421 7.0392 120.297 7.03874C120.25 7.03857 120.002 7.23333 119.744 7.47154C119.281 7.89983 119.28 7.90975 119.624 8.36348C119.815 8.61584 120.025 8.97045 120.09 9.15152C120.173 9.3818 120.411 9.48146 120.881 9.4832C121.493 9.48533 121.542 9.44713 121.426 9.0625ZM172.058 8.45349C172.049 7.85931 172.072 7.25846 172.109 7.11826C172.162 6.9172 134.343 6.85989 132.942 6.84703C129.847 6.81856 121.164 7.08314 121.162 7.20588C121.161 7.27071 121.388 7.81067 121.665 8.40583L122.17 9.48795L128.394 9.51089L172.075 9.53384L172.058 8.45349ZM97.8619 193.039L96.9357 192.202L96.9535 190.764C96.9634 189.973 97.0542 189.271 97.1556 189.203C97.2569 189.135 97.3933 188.936 97.4587 188.76C97.6465 188.253 99.0163 187.489 99.7316 187.492C100.086 187.494 100.502 187.622 100.656 187.777C100.809 187.933 101.025 188.06 101.135 188.061C101.246 188.061 101.335 188.181 101.335 188.328C101.334 188.474 101.424 188.625 101.535 188.662C101.646 188.7 101.849 189.222 101.985 189.822C102.305 191.227 102.009 192.322 101.06 193.241C100.514 193.77 100.257 193.882 99.5932 193.879C98.9051 193.876 98.6537 193.755 97.8619 193.039ZM100.671 192.857C101.832 191.974 101.701 190.425 100.41 189.757C99.4251 189.247 99.0178 189.268 98.4273 189.857C97.7333 190.549 97.5279 191.181 97.7688 191.884C98.2503 193.289 99.5366 193.72 100.671 192.857ZM99.3235 188.994C99.7152 188.995 100.327 189.12 100.683 189.271C101.506 189.62 101.564 189.296 100.81 188.564C100.083 187.86 99.1844 187.875 98.3842 188.604C97.6903 189.236 97.5521 189.731 98.1947 189.282C98.4238 189.122 98.9318 188.992 99.3235 188.994ZM88.9836 191.771C88.9843 191.563 88.8836 191.228 88.7597 191.027C88.6358 190.826 88.5734 190.624 88.6211 190.578C88.7734 190.432 93.8223 190.254 94.217 190.382C94.5235 190.481 94.5961 190.665 94.5936 191.337L94.5908 192.17L91.7866 192.16C89.1007 192.15 88.9822 192.133 88.9836 191.771ZM94.1846 191.276C94.1305 190.987 93.8367 190.94 91.742 190.886C89.8307 190.836 89.3607 190.875 89.36 191.08C89.3586 191.543 89.5825 191.588 91.9268 191.596C94.035 191.604 94.2405 191.575 94.1846 191.276ZM105.294 192.059L104.313 191.998L104.315 191.252C104.319 190.247 104.656 190.14 107.79 190.152C110.573 190.162 110.547 190.148 110.026 191.387C109.863 191.776 109.617 192.043 109.416 192.05C107.82 192.105 106.11 192.109 105.294 192.059ZM109.69 191.187L109.692 190.712L107.331 190.755C105.044 190.798 104.969 190.812 104.91 191.222C104.849 191.641 104.866 191.644 107.268 191.653L109.688 191.662L109.69 191.187ZM65.2559 187.253C65.2538 186.889 66.0942 185.341 66.3956 185.153C66.7763 184.916 76.7579 184.803 76.9852 185.033C77.068 185.117 76.9887 185.293 76.808 185.424C76.6277 185.556 76.4778 185.823 76.4748 186.018C76.472 186.213 76.3172 186.57 76.1312 186.812C75.7945 187.248 75.7707 187.25 70.525 187.336C67.4408 187.387 65.2565 187.352 65.2559 187.253ZM74.7642 186.677C75.6708 186.569 75.787 186.501 76.0236 185.94L76.2841 185.321L71.5975 185.36L66.9108 185.399L66.4603 185.961C66.2125 186.27 66.0092 186.586 66.0084 186.663C66.0063 186.833 73.352 186.845 74.7642 186.677ZM122.372 186.333C122.008 185.552 121.934 185.221 122.089 185.066C122.231 184.924 123.986 184.841 127.481 184.809L132.662 184.761L133.265 185.907C133.597 186.538 133.868 187.138 133.868 187.242C133.867 187.363 131.917 187.423 128.366 187.41L122.864 187.389L122.372 186.333ZM132.718 186.093L132.291 185.322L127.574 185.379C124.979 185.41 122.803 185.489 122.738 185.554C122.673 185.619 122.772 185.932 122.957 186.249L123.294 186.827L128.22 186.845L133.145 186.864L132.718 186.093ZM7.80115 112.241C7.76137 112.173 7.70636 109.878 7.67884 107.141L7.62882 102.166L9.06912 102.167C10.4366 102.169 10.5151 102.192 10.6209 102.623C10.8198 103.432 10.6308 111.688 10.4116 111.765C9.7403 112.002 7.86157 112.345 7.80115 112.241ZM9.59746 111.432C10.3095 111.22 10.3313 111.19 10.2172 110.566C10.1521 110.21 10.1101 108.323 10.1239 106.373L10.1489 102.826L9.54198 102.821C9.20819 102.818 8.74597 102.765 8.51485 102.701C8.10658 102.59 8.0945 102.626 8.08953 103.988C8.08671 104.758 8.13454 106.797 8.19585 108.519C8.31897 111.978 8.24904 111.833 9.59746 111.432ZM191.181 112.519C190.822 112.379 190.309 112.256 190.042 112.248C189.564 112.232 189.554 112.202 189.441 110.511C189.285 108.187 189.321 102.413 189.493 102.18C189.569 102.077 190.22 101.995 190.939 101.998C191.659 102 192.31 102.087 192.385 102.191C192.46 102.294 192.514 104.725 192.505 107.593C192.488 113.41 192.58 113.066 191.181 112.519ZM191.948 107.356L191.965 102.659L191.05 102.655C190.389 102.653 190.104 102.734 190.021 102.949C189.871 103.337 189.863 106.516 190.005 109.359L190.118 111.617L190.791 111.81C191.161 111.916 191.569 112.014 191.697 112.028C191.879 112.047 191.935 111 191.948 107.356ZM7.86933 100.287C7.43818 99.6866 7.46996 98.8854 7.94761 98.3127C8.84962 97.2312 10.9205 98.1517 10.6447 99.5115C10.4597 100.424 10.028 100.76 9.05384 100.75C8.36561 100.742 8.13013 100.65 7.86933 100.287ZM9.97215 99.8233C10.0818 99.6192 10.1191 99.2389 10.055 98.9782C9.95314 98.5639 9.8377 98.5039 9.13748 98.5013C8.32366 98.4984 8.10885 98.6885 8.1062 99.4146C8.10408 99.9075 8.48779 100.19 9.1624 100.192C9.57931 100.194 9.83595 100.077 9.97215 99.8233ZM189.837 100.477C189.546 100.183 189.474 99.7988 189.539 98.8926C189.613 97.8549 191.133 97.3906 191.946 98.1573C192.516 98.6942 192.499 99.8236 191.915 100.372C191.396 100.858 190.269 100.915 189.837 100.477ZM191.685 99.5951C191.924 98.9166 191.647 98.4511 190.954 98.3661C190.344 98.2914 190.117 98.568 190.11 99.3957C190.105 100.039 190.313 100.209 191.036 100.156C191.36 100.131 191.556 99.9617 191.685 99.5951ZM7.67725 96.4885C7.61076 96.4213 7.56566 93.8441 7.5769 90.7615L7.59732 85.1568L8.48531 85.1625C8.9737 85.166 9.68981 85.2216 10.0767 85.2873L10.78 85.4068L10.7103 90.9707L10.6406 96.5345L10.1734 96.4835C9.16976 96.374 8.74655 96.3757 8.28153 96.4911C8.01563 96.5572 7.74367 96.5557 7.67725 96.4885ZM10.1502 90.8493L10.1187 85.8236L9.13741 85.7632L8.15614 85.7028L8.13763 90.785L8.11911 95.8673L9.15037 95.8708L10.1816 95.8744L10.1502 90.8493ZM189.308 96.5121C189.24 96.4429 189.193 93.9477 189.204 90.9671L189.223 85.5479L190.264 85.0898C190.837 84.8378 191.532 84.6089 191.809 84.5812L192.312 84.5307L192.339 90.5897L192.366 96.6486L190.899 96.6429C190.092 96.64 189.376 96.5812 189.308 96.5121ZM191.822 90.7398C191.832 87.801 191.778 85.3583 191.701 85.3115C191.624 85.2648 191.182 85.3747 190.719 85.556L189.876 85.8854L189.808 90.9804L189.74 96.0753L190.771 96.0789L191.802 96.0824L191.822 90.7398ZM76.7835 14.508C76.6044 14.3703 76.4081 14.0026 76.3472 13.6907C76.2584 13.2359 76.3226 13.0636 76.6718 12.8198C77.5518 12.2051 78.519 12.6249 78.5154 13.6199C78.5119 14.5353 77.4965 15.0561 76.7835 14.508ZM77.6571 14.0946C77.9867 13.9689 78.0601 13.3579 77.7675 13.1747C77.4504 12.9762 76.8341 13.272 76.8328 13.6234C76.8307 14.1684 77.0841 14.3132 77.6571 14.0946ZM120.434 14.5566C119.917 13.7188 120.481 12.6755 121.448 12.6791C122.018 12.6812 122.527 13.4543 122.342 14.0345C122.055 14.931 120.865 15.2566 120.434 14.5566ZM121.679 14.1128C121.926 13.816 121.768 13.2439 121.439 13.2427C121.11 13.2412 120.766 13.6428 120.764 14.0292C120.763 14.4336 121.366 14.4887 121.679 14.1128Z" fill="black"/>
</svg>
