<svg width="24" height="24" viewBox="0 0 24 24" fill="none" xmlns="http://www.w3.org/2000/svg">
<path fill-rule="evenodd" clip-rule="evenodd" d="M7.22881 10.5806C10.6689 10.5806 13.4576 13.3608 13.4576 16.7903C13.4576 20.2198 10.6689 23 7.22881 23C3.78873 23 1 20.2198 1 16.7903C1 13.3608 3.78873 10.5806 7.22881 10.5806ZM7.22881 13.6855C5.50877 13.6855 4.11441 15.0756 4.11441 16.7903C4.11441 18.5051 5.50877 19.8952 7.22881 19.8952C8.94885 19.8952 10.3432 18.5051 10.3432 16.7903C10.3432 15.0756 8.94885 13.6855 7.22881 13.6855Z" fill="black"/>
<path d="M22 16.9677H14.5254V14.129H22V16.9677Z" fill="black"/>
<path d="M20.4004 4.42676L13.3356 11.4698L11.322 9.46276L18.3871 2.41935L20.4004 4.42676Z" fill="black"/>
<path d="M8.83051 8.45161H5.98305V1H8.83051V8.45161Z" fill="black"/>
</svg>
