<svg width="24" height="24" viewBox="0 0 24 24" fill="none" xmlns="http://www.w3.org/2000/svg">
<path d="M8.41806 3.71387C8.45229 3.75993 8.48578 3.80764 8.51571 3.85742L10.42 7.02539C12 9 10.3164 9 9.30282 9C8.58325 9.00026 8.00009 9.58408 8.00009 10.3037V20C8.00009 20.5523 7.55233 21 7.00009 21C6.4478 21 6.00009 20.5523 6.00009 20V10.3037C6.00009 9.58392 5.41617 9 4.69638 9C3.68299 8.99976 2 9 3.58017 7.02539L5.48446 3.85742C5.50729 3.81945 5.53137 3.78191 5.55673 3.74609L6.95614 1.5L8.41806 3.71387Z" fill="black"/>
<path d="M15.6492 18.7861C15.6149 18.7401 15.5815 18.6924 15.5515 18.6426L13.6472 15.4746C12.0672 13.5 13.7509 13.5 14.7644 13.5C15.484 13.4997 16.0672 12.9159 16.0672 12.1963L16.0672 2.5C16.0672 1.94774 16.5149 1.50005 17.0672 1.5C17.6194 1.5 18.0672 1.94772 18.0672 2.5L18.0672 12.1963C18.0672 12.9161 18.6511 13.5 19.3709 13.5C20.3843 13.5002 22.0672 13.5 20.4871 15.4746L18.5828 18.6426C18.5599 18.6805 18.5359 18.7181 18.5105 18.7539L17.1111 21L15.6492 18.7861Z" fill="black"/>
</svg>
