<svg width="24" height="24" viewBox="0 0 24 24" fill="none" xmlns="http://www.w3.org/2000/svg">
<path fill-rule="evenodd" clip-rule="evenodd" d="M9 2C12.866 2 16 5.13401 16 9C16 10.2071 15.6942 11.3427 15.1562 12.334C15.1854 12.3599 15.2152 12.3861 15.2432 12.4141L20.8994 18.0713C21.6802 18.8524 21.6804 20.1185 20.8994 20.8994C20.1185 21.6804 18.8524 21.6802 18.0713 20.8994L12.4141 15.2432C12.3861 15.2152 12.3599 15.1854 12.334 15.1562C11.3427 15.6942 10.2071 16 9 16C5.13401 16 2 12.866 2 9C2 5.13401 5.13401 2 9 2ZM9 4C6.23858 4 4 6.23858 4 9C4 11.7614 6.23858 14 9 14C10.1326 14 11.1763 13.6221 12.0146 12.9873C12.3814 12.7095 12.7095 12.3824 12.9873 12.0156C13.6221 11.1773 14 10.1326 14 9C14 6.23858 11.7614 4 9 4Z" fill="black"/>
</svg>
