<svg width="24" height="24" viewBox="0 0 24 24" fill="none" xmlns="http://www.w3.org/2000/svg">
<path d="M17.3431 8.65685L20.5858 5.41421C20.851 5.149 21 4.78929 21 4.41421C21 3.63317 20.3668 3 19.5858 3H4.41421C3.63316 3 3 3.63317 3 4.41421C3 4.78929 3.149 5.149 3.41421 5.41421L6.65685 8.65685C8.15715 10.1571 9 12.192 9 14.3137V19.2929C9 19.7456 9.17986 20.1799 9.5 20.5C9.82014 20.8201 10.2544 21 10.7071 21H13.2929C13.7456 21 14.1799 20.8201 14.5 20.5C14.8201 20.1799 15 19.7456 15 19.2929V14.3137C15 12.192 15.8429 10.1571 17.3431 8.65685Z" fill="black"/>
</svg>
